<svg width="392" height="75" viewBox="0 0 392 75" fill="none" xmlns="http://www.w3.org/2000/svg">
<path d="M6.78711 60.6172H9.24771V71.9124H15.6962V73.9355H6.78711V60.6172Z" fill="#D7B46A"/>
<path d="M19.0918 60.6172H21.5524V73.9355H19.0918V60.6172Z" fill="#D7B46A"/>
<path d="M27.2368 74.0239C26.4731 73.8554 25.7944 73.6868 25.3701 73.4339V71.3266C26.0489 71.6637 26.6428 71.8323 27.4065 72.0009C28.0853 72.1695 28.764 72.2538 29.4428 72.2538C30.2913 72.2538 30.9701 72.0852 31.3943 71.748C31.8186 71.4109 32.0731 70.9894 32.0731 70.3993C32.0731 69.9779 31.9883 69.6407 31.7337 69.3878C31.564 69.1349 31.2246 68.8821 30.8004 68.7135C30.3762 68.5449 29.7822 68.292 29.0186 67.9548C27.7459 67.4491 26.8974 66.859 26.3034 66.269C25.7095 65.6789 25.455 64.836 25.455 63.9088C25.455 63.1501 25.6247 62.5601 26.0489 61.97C26.4731 61.38 26.9822 60.9585 27.7459 60.7056C28.4247 60.3685 29.2731 60.2842 30.2065 60.2842C30.9701 60.2842 31.6489 60.3685 32.2428 60.4528C32.8368 60.5371 33.4307 60.7899 34.0246 61.0428V63.0658C32.9216 62.5601 31.8186 62.3072 30.6307 62.3072C29.7822 62.3072 29.1883 62.4758 28.764 62.7287C28.3398 63.0659 28.0853 63.4873 28.0853 63.9931C28.0853 64.4145 28.1701 64.6674 28.4247 64.9203C28.5943 65.1732 28.9337 65.3418 29.2731 65.5103C29.6125 65.6789 30.2065 65.9318 31.1398 66.3533C32.0731 66.6904 32.7519 67.1119 33.261 67.4491C33.7701 67.7863 34.1943 68.2077 34.4489 68.7135C34.7034 69.2192 34.8731 69.8093 34.8731 70.4836C34.8731 71.6637 34.4489 72.591 33.6004 73.2653C32.7519 73.9397 31.4792 74.2768 29.7822 74.2768C28.8489 74.1925 28.0004 74.1925 27.2368 74.0239Z" fill="#D7B46A"/>
<path d="M41.7456 62.6402H37.6729V60.6172H48.1941V62.6402H44.2062V73.9355H41.7456V62.6402Z" fill="#D7B46A"/>
<path d="M51.6729 60.6172H60.7517V62.6402H54.1335V66.2648H59.0547V68.2878H54.1335V71.9124H60.7517V73.9355H51.6729V60.6172Z" fill="#D7B46A"/>
<path d="M64.3993 60.6172H66.6902L72.969 69.8894V60.6172H75.4296V73.9355H73.0539L66.7751 64.6632V73.9355H64.3145V60.6172H64.3993Z" fill="#D7B46A"/>
<path d="M100.291 73.3483C99.1882 72.7583 98.3398 71.9996 97.7458 70.9038C97.1519 69.8923 96.8125 68.6279 96.8125 67.2792C96.8125 65.8462 97.1519 64.6661 97.7458 63.6546C98.3398 62.6431 99.1882 61.8002 100.291 61.2101C101.394 60.6201 102.582 60.3672 104.025 60.3672C105.891 60.3672 107.419 60.7887 108.691 61.7159V63.9918C107.588 63.0646 106.146 62.5588 104.279 62.5588C103.261 62.5588 102.412 62.7274 101.734 63.1489C100.97 63.5703 100.376 64.0761 100.037 64.8347C99.6125 65.5091 99.4428 66.352 99.4428 67.3635C99.4428 68.2907 99.6125 69.1337 100.037 69.8923C100.461 70.5666 101.055 71.1567 101.734 71.5782C102.497 71.9996 103.346 72.1682 104.279 72.1682C105.212 72.1682 106.061 72.0839 106.825 71.831C107.588 71.5782 108.267 71.241 108.861 70.7352V73.0111C107.673 73.9384 106.061 74.3598 104.109 74.3598C102.582 74.1912 101.394 73.9384 100.291 73.3483Z" fill="#D7B46A"/>
<path d="M112.593 60.6172H118.193C119.635 60.6172 120.823 60.9544 121.587 61.713C122.35 62.4716 122.775 63.4831 122.775 64.8318C122.775 65.8433 122.52 66.602 122.011 67.3606C121.502 68.035 120.823 68.5407 119.975 68.7936L122.69 73.9355H120.229L117.684 69.0465H115.053V73.9355H112.593V60.6172ZM117.769 67.1077C118.532 67.1077 119.211 66.9391 119.72 66.5177C120.229 66.1805 120.484 65.5905 120.484 64.8318C120.484 63.3146 119.635 62.6402 117.853 62.6402H115.138V67.1077H117.769Z" fill="#D7B46A"/>
<path d="M126.679 60.6172H135.757V62.6402H129.139V66.2648H134.061V68.2878H129.139V71.9124H135.757V73.9355H126.679V60.6172Z" fill="#D7B46A"/>
<path d="M144.327 60.6172H146.703L152.048 73.9355H149.588L148.4 70.9009H142.715L141.527 73.9355H139.066L144.327 60.6172ZM147.721 68.8779L145.515 63.2303L143.309 68.8779H147.721Z" fill="#D7B46A"/>
<path d="M159.175 62.6402H155.103V60.6172H165.624V62.6402H161.551V73.9355H159.09V62.6402H159.175Z" fill="#D7B46A"/>
<path d="M169.104 60.6172H178.182V62.6402H171.564V66.2648H176.485V68.2878H171.564V71.9124H178.182V73.9355H169.104V60.6172Z" fill="#D7B46A"/>
<path d="M307.831 60.6172H310.292V73.9354H307.831V60.6172Z" fill="#D7B46A"/>
<path d="M314.449 60.6172H316.74L323.019 69.8894V60.6172H325.48V73.9355H323.189L316.91 64.6632V73.9355H314.449V60.6172Z" fill="#D7B46A"/>
<path d="M331.165 74.0239C330.401 73.8554 329.722 73.6868 329.298 73.4339V71.3266C329.977 71.6637 330.571 71.8323 331.334 72.0009C332.013 72.1695 332.692 72.2538 333.371 72.2538C334.219 72.2538 334.898 72.0852 335.322 71.748C335.746 71.4109 336.001 70.9894 336.001 70.3993C336.001 69.9779 335.916 69.6407 335.661 69.3878C335.492 69.1349 335.152 68.8821 334.728 68.7135C334.304 68.5449 333.71 68.292 332.946 67.9548C331.674 67.4491 330.825 66.859 330.231 66.269C329.637 65.6789 329.383 64.836 329.383 63.9088C329.383 63.1501 329.552 62.5601 329.977 61.97C330.401 61.38 330.91 60.9585 331.674 60.7056C332.437 60.4528 333.201 60.2842 334.134 60.2842C334.898 60.2842 335.577 60.3685 336.171 60.4528C336.765 60.5371 337.358 60.7899 337.952 61.0428V63.0658C336.849 62.5601 335.746 62.3072 334.558 62.3072C333.71 62.3072 333.116 62.4758 332.692 62.7287C332.268 63.0659 332.013 63.4873 332.013 63.9931C332.013 64.4145 332.098 64.6674 332.352 64.9203C332.522 65.1732 332.861 65.3418 333.201 65.5103C333.54 65.6789 334.134 65.9318 335.068 66.3533C336.001 66.6904 336.68 67.1119 337.189 67.4491C337.698 67.7863 338.122 68.2077 338.377 68.7135C338.631 69.2192 338.801 69.8093 338.801 70.4836C338.801 71.6637 338.377 72.591 337.528 73.2653C336.68 73.9397 335.407 74.2768 333.71 74.2768C332.692 74.1925 331.928 74.1925 331.165 74.0239Z" fill="#D7B46A"/>
<path d="M342.449 60.6172H347.795C349.237 60.6172 350.425 61.0386 351.358 61.7973C352.207 62.5559 352.716 63.6517 352.716 65.0004C352.716 66.4334 352.292 67.4449 351.358 68.2036C350.51 68.9622 349.322 69.2994 347.795 69.2994H344.91V74.0198H342.449V60.6172ZM347.455 67.2763C349.322 67.2763 350.17 66.5177 350.17 65.0004C350.17 63.3989 349.237 62.6402 347.455 62.6402H344.825V67.2763H347.455Z" fill="#D7B46A"/>
<path d="M356.109 60.6172H358.57V73.9355H356.109V60.6172Z" fill="#D7B46A"/>
<path d="M362.729 60.6172H368.329C369.771 60.6172 370.959 60.9544 371.723 61.713C372.486 62.4716 372.91 63.4831 372.91 64.8318C372.91 65.8433 372.656 66.602 372.147 67.3606C371.638 68.035 370.959 68.5407 370.11 68.7936L372.826 73.9355H370.365L367.819 69.0465H365.189V73.9355H362.729V60.6172ZM367.904 67.1077C368.668 67.1077 369.347 66.9391 369.856 66.5177C370.365 66.1805 370.619 65.5905 370.619 64.8318C370.619 63.3146 369.771 62.6402 367.989 62.6402H365.274V67.1077H367.904Z" fill="#D7B46A"/>
<path d="M376.812 60.6172H385.891V62.6402H379.273V66.2648H384.194V68.2878H379.273V71.9124H385.891V73.9355H376.812V60.6172Z" fill="#D7B46A"/>
<path d="M199.309 60.6191H203.806C205.248 60.6191 206.521 60.872 207.624 61.3778C208.727 61.8835 209.49 62.6422 210.084 63.6537C210.678 64.6652 210.933 65.8453 210.933 67.194C210.933 69.3857 210.254 71.0716 208.981 72.1674C207.709 73.2632 205.927 73.8532 203.551 73.8532H199.309V60.6191ZM203.636 71.9145C205.163 71.9145 206.351 71.493 207.199 70.6501C208.048 69.8071 208.472 68.627 208.472 67.194C208.472 66.2668 208.303 65.5082 207.878 64.8338C207.539 64.1595 206.945 63.5694 206.266 63.2322C205.587 62.8108 204.739 62.6422 203.806 62.6422H201.684V71.9145H203.636Z" fill="#D7B46A"/>
<path d="M214.752 60.6191H223.831V62.6422H217.213V66.2668H222.134V68.2898H217.213V71.9144H223.831V73.9374H214.752V60.6191Z" fill="#D7B46A"/>
<path d="M227.479 60.6191H229.94V71.9144H236.389V73.9374H227.479V60.6191Z" fill="#D7B46A"/>
<path d="M239.782 60.6191H242.243V73.9374H239.782V60.6191Z" fill="#D7B46A"/>
<path d="M246.062 60.6191H248.607L252.595 70.65L256.583 60.6191H259.128L253.783 73.9374H251.407L246.062 60.6191Z" fill="#D7B46A"/>
<path d="M262.946 60.6191H272.025V62.6422H265.407V66.2668H270.328V68.2898H265.407V71.9144H272.025V73.9374H262.946V60.6191Z" fill="#D7B46A"/>
<path d="M275.673 60.6191H281.273C282.715 60.6191 283.903 60.9563 284.667 61.7149C285.43 62.4736 285.855 63.4851 285.855 64.8338C285.855 65.8453 285.6 66.6039 285.091 67.3626C284.582 68.0369 283.903 68.5427 283.055 68.7955L285.77 73.9374H283.309L280.764 69.0484H278.133V73.9374H275.673V60.6191ZM280.849 67.1097C281.612 67.1097 282.291 66.9411 282.8 66.5196C283.309 66.1825 283.564 65.5924 283.564 64.8338C283.564 63.3165 282.715 62.6422 280.933 62.6422H278.218V67.1097H280.849Z" fill="#D7B46A"/>
<path fill-rule="evenodd" clip-rule="evenodd" d="M189.212 69.38C190.314 69.38 191.247 68.4533 191.247 67.358C191.247 66.2627 190.314 65.3359 189.212 65.3359C188.109 65.3359 187.176 66.2627 187.176 67.358C187.091 68.4533 188.024 69.38 189.212 69.38Z" fill="#D7B46A"/>
<path fill-rule="evenodd" clip-rule="evenodd" d="M295.612 69.38C296.715 69.38 297.647 68.4533 297.647 67.358C297.647 66.2627 296.715 65.3359 295.612 65.3359C294.51 65.3359 293.577 66.2627 293.577 67.358C293.492 68.4533 294.425 69.38 295.612 69.38Z" fill="#D7B46A"/>
<path fill-rule="evenodd" clip-rule="evenodd" d="M87.3928 69.38C88.4952 69.38 89.4281 68.4533 89.4281 67.358C89.4281 66.2627 88.4952 65.3359 87.3928 65.3359C86.2903 65.3359 85.3574 66.2627 85.3574 67.358C85.3574 68.4533 86.2903 69.38 87.3928 69.38Z" fill="#D7B46A"/>
<path d="M78.4848 22.101C78.4848 12.4916 70.9333 7.77123 63.3818 7.77123C55.8303 7.77123 48.2788 12.5759 48.2788 22.101C48.2788 31.7104 55.8303 36.4308 63.3818 36.4308C70.9333 36.4308 78.4848 31.6261 78.4848 22.101ZM0.0848485 12.4916C0.169697 4.14664 8.4 0.100586 16.0364 0.100586C22.3151 0.100586 28.7636 2.37649 33.1757 6.9283L27.5757 12.4916C24.6909 9.2885 20.2788 7.77123 15.9515 7.77123C12.8121 7.77123 7.89091 8.95133 7.89091 12.8288C7.89091 16.7063 14.5091 17.3806 20.8727 18.8136C27.4909 20.4151 34.1091 23.2811 34.0242 31.4575C33.9394 40.0554 25.4545 44.1014 17.7333 44.1014C11.4545 44.1014 4.49697 41.8255 0 37.4423L5.6 31.879C8.65454 34.9978 13.4909 36.4308 17.7333 36.4308C20.9576 36.4308 26.0485 35.0821 26.0485 31.1203C26.0485 27.0743 19.1758 26.4842 12.5576 24.8827C6.27879 23.2811 0 20.3309 0.0848485 12.4916ZM251.915 0.606343C244.109 0.606343 236.303 0.606343 228.412 0.606343V43.5114H236.048C236.048 28.6758 236.048 21.4267 236.048 8.19269H251.915C254.715 8.19269 257.006 10.4686 257.006 13.2503C257.006 16.0319 254.715 18.3078 251.915 18.3078H239.951L258.024 43.5114H267.442L254.63 25.557C260.315 24.2926 264.642 19.235 264.642 13.2503C264.642 6.33825 258.873 0.606343 251.915 0.606343ZM117.77 0.606343C109.964 0.606343 102.158 0.606343 94.2666 0.606343V43.5114H101.903C101.903 28.6758 101.903 21.4267 101.903 8.19269H117.77C120.57 8.19269 122.861 10.4686 122.861 13.2503C122.861 16.0319 120.57 18.3078 117.77 18.3078H105.806L123.879 43.5114H133.297L120.4 25.557C126.085 24.2926 130.412 19.235 130.412 13.2503C130.497 6.33825 124.727 0.606343 117.77 0.606343ZM220.436 43.5114H188.788V0.606343H220.436V8.19269H196.424V18.3078H217.212V25.8942H196.424V36.0093H220.436V43.5114ZM154.848 18.3078H180.812V24.967C180.812 36.9365 171.903 44.0171 160.024 44.0171C148.485 44.0171 136.945 36.6837 136.945 22.0167C136.945 7.43406 148.485 0.100586 160.024 0.100586C166.303 0.100586 172.751 2.37649 177.248 6.9283L171.648 12.4916C168.679 9.2885 164.351 7.77123 160.024 7.77123C152.473 7.77123 144.921 12.5759 144.921 22.101C144.921 31.7104 152.473 36.4308 160.024 36.4308C168.17 36.4308 172.582 31.7947 172.921 25.8099H159.855L154.848 18.3078ZM86.3757 22.101C86.3757 36.7679 74.8363 44.1014 63.2969 44.1014C51.7576 44.1014 40.2182 36.7679 40.2182 22.101C40.303 7.43406 51.8424 0.100586 63.3818 0.100586C74.8363 0.100586 86.3757 7.43406 86.3757 22.101Z" fill="#00203E"/>
<path d="M379.698 22.101C382.243 21.0895 384.28 18.8136 384.28 15.1047C384.28 11.4801 382.243 9.11993 379.698 8.19271C378.68 7.77124 377.492 7.60265 376.304 7.60265C375.116 7.60265 373.928 7.77124 372.91 8.19271C370.365 9.20422 368.328 11.4801 368.328 15.1047C368.328 18.7293 370.365 21.0895 372.91 22.101C373.928 22.5225 375.116 22.6911 376.304 22.6911C377.492 22.6911 378.68 22.5225 379.698 22.101ZM316.231 22.101C316.231 7.43407 327.771 0.100586 339.225 0.100586C345.504 0.100586 351.953 2.37649 356.45 6.92831L350.85 12.4916C347.965 9.20422 343.637 7.68695 339.225 7.68695C331.674 7.68695 324.122 12.4916 324.122 22.0167C324.122 31.6261 331.674 36.3465 339.225 36.3465C343.553 36.3465 347.88 34.8293 350.85 31.6261L356.45 37.1895C352.037 41.7413 345.589 44.0172 339.225 44.0172C327.771 44.0172 316.231 36.6837 316.231 22.101ZM367.31 35.9251H385.298V43.5114C379.274 43.5114 373.25 43.5114 367.31 43.5114V35.9251ZM392.001 15.189C392.001 22.3539 387.843 26.99 382.583 29.0131C380.547 29.7717 378.425 30.1932 376.304 30.1932C374.183 30.1932 372.062 29.7717 370.025 29.0131C364.765 26.99 360.607 22.3539 360.607 15.189C360.607 8.02412 364.765 3.38801 370.025 1.36498C372.062 0.606343 374.183 0.184879 376.304 0.184879C378.425 0.184879 380.547 0.606343 382.583 1.36498C387.843 3.38801 392.001 8.02412 392.001 15.189Z" fill="#00203E"/>
<path d="M78.4848 22.101C78.4848 12.4916 70.9333 7.77123 63.3818 7.77123C55.8303 7.77123 48.2788 12.5759 48.2788 22.101C48.2788 31.7104 55.8303 36.4308 63.3818 36.4308C70.9333 36.4308 78.4848 31.6261 78.4848 22.101ZM0.0848485 12.4916C0.169697 4.14664 8.4 0.100586 16.0364 0.100586C22.3151 0.100586 28.7636 2.37649 33.1757 6.9283L27.5757 12.4916C24.6909 9.2885 20.2788 7.77123 15.9515 7.77123C12.8121 7.77123 7.89091 8.95133 7.89091 12.8288C7.89091 16.7063 14.5091 17.3806 20.8727 18.8136C27.4909 20.4151 34.1091 23.2811 34.0242 31.4575C33.9394 40.0554 25.4545 44.1014 17.7333 44.1014C11.4545 44.1014 4.49697 41.8255 0 37.4423L5.6 31.879C8.65454 34.9978 13.4909 36.4308 17.7333 36.4308C20.9576 36.4308 26.0485 35.0821 26.0485 31.1203C26.0485 27.0743 19.1758 26.4842 12.5576 24.8827C6.27879 23.2811 0 20.3309 0.0848485 12.4916ZM251.915 0.606343C244.109 0.606343 236.303 0.606343 228.412 0.606343V43.5114H236.048C236.048 28.6758 236.048 21.4267 236.048 8.19269H251.915C254.715 8.19269 257.006 10.4686 257.006 13.2503C257.006 16.0319 254.715 18.3078 251.915 18.3078H239.951L258.024 43.5114H267.442L254.63 25.557C260.315 24.2926 264.642 19.235 264.642 13.2503C264.642 6.33825 258.873 0.606343 251.915 0.606343ZM117.77 0.606343C109.964 0.606343 102.158 0.606343 94.2666 0.606343V43.5114H101.903C101.903 28.6758 101.903 21.4267 101.903 8.19269H117.77C120.57 8.19269 122.861 10.4686 122.861 13.2503C122.861 16.0319 120.57 18.3078 117.77 18.3078H105.806L123.879 43.5114H133.297L120.4 25.557C126.085 24.2926 130.412 19.235 130.412 13.2503C130.497 6.33825 124.727 0.606343 117.77 0.606343ZM220.436 43.5114H188.788V0.606343H220.436V8.19269H196.424V18.3078H217.212V25.8942H196.424V36.0093H220.436V43.5114ZM154.848 18.3078H180.812V24.967C180.812 36.9365 171.903 44.0171 160.024 44.0171C148.485 44.0171 136.945 36.6837 136.945 22.0167C136.945 7.43406 148.485 0.100586 160.024 0.100586C166.303 0.100586 172.751 2.37649 177.248 6.9283L171.648 12.4916C168.679 9.2885 164.351 7.77123 160.024 7.77123C152.473 7.77123 144.921 12.5759 144.921 22.101C144.921 31.7104 152.473 36.4308 160.024 36.4308C168.17 36.4308 172.582 31.7947 172.921 25.8099H159.855L154.848 18.3078ZM86.3757 22.101C86.3757 36.7679 74.8363 44.1014 63.2969 44.1014C51.7576 44.1014 40.2182 36.7679 40.2182 22.101C40.303 7.43406 51.8424 0.100586 63.3818 0.100586C74.8363 0.100586 86.3757 7.43406 86.3757 22.101Z" fill="white"/>
<path d="M379.698 22.101C382.243 21.0895 384.28 18.8136 384.28 15.1047C384.28 11.4801 382.243 9.11993 379.698 8.19271C378.68 7.77124 377.492 7.60265 376.304 7.60265C375.116 7.60265 373.928 7.77124 372.91 8.19271C370.365 9.20422 368.328 11.4801 368.328 15.1047C368.328 18.7293 370.365 21.0895 372.91 22.101C373.928 22.5225 375.116 22.6911 376.304 22.6911C377.492 22.6911 378.68 22.5225 379.698 22.101ZM316.231 22.101C316.231 7.43407 327.771 0.100586 339.225 0.100586C345.504 0.100586 351.953 2.37649 356.45 6.92831L350.85 12.4916C347.965 9.20422 343.637 7.68695 339.225 7.68695C331.674 7.68695 324.122 12.4916 324.122 22.0167C324.122 31.6261 331.674 36.3465 339.225 36.3465C343.553 36.3465 347.88 34.8293 350.85 31.6261L356.45 37.1895C352.037 41.7413 345.589 44.0172 339.225 44.0172C327.771 44.0172 316.231 36.6837 316.231 22.101ZM367.31 35.9251H385.298V43.5114C379.274 43.5114 373.25 43.5114 367.31 43.5114V35.9251ZM392.001 15.189C392.001 22.3539 387.843 26.99 382.583 29.0131C380.547 29.7717 378.425 30.1932 376.304 30.1932C374.183 30.1932 372.062 29.7717 370.025 29.0131C364.765 26.99 360.607 22.3539 360.607 15.189C360.607 8.02412 364.765 3.38801 370.025 1.36498C372.062 0.606343 374.183 0.184879 376.304 0.184879C378.425 0.184879 380.547 0.606343 382.583 1.36498C387.843 3.38801 392.001 8.02412 392.001 15.189Z" fill="white"/>
<path d="M303.842 33.2243C305.539 30.6112 306.981 27.5767 308.169 24.205L301.721 22.0134C300.957 24.2893 300.024 26.3123 298.921 28.1667L286.618 15.3542C286.109 14.7642 282.715 10.8024 285.854 7.85213C287.296 6.41915 288.993 6.84061 289.757 7.17778C291.03 7.76784 292.302 9.03223 292.218 10.7181C292.218 11.3924 291.878 12.0668 291.284 12.6568L290.436 13.5841L295.187 18.473L296.29 17.3772C297.987 15.6071 299.005 13.3312 299.09 10.971C299.26 6.84061 296.63 2.79455 292.642 1.0244C288.654 -0.745757 284.242 0.0128797 281.187 2.96314C277.878 6.08198 276.945 10.2966 278.557 14.6799C279.066 16.1128 279.745 17.2929 280.339 18.2202C275.587 21.5076 270.751 27.3238 273.296 34.6573C274.824 39.1248 278.302 42.0751 283.309 43.0866C284.496 43.3395 285.684 43.4238 286.872 43.4238C291.454 43.4238 295.951 41.6536 299.43 38.4505L304.436 43.6767H313.854L303.842 33.2243ZM284.666 36.5118C281.187 35.7531 280.169 33.8144 279.66 32.4657C278.218 28.3353 282.29 25.0479 284.836 23.362L294.678 33.6458C291.963 36.1746 288.145 37.2704 284.666 36.5118Z" fill="url(#paint0_linear_245:377)"/>
<defs>
<linearGradient id="paint0_linear_245:377" x1="291.849" y1="-0.307181" x2="293.43" y2="44.2325" gradientUnits="userSpaceOnUse">
<stop stop-color="#D7B46A"/>
<stop offset="1" stop-color="#B99C5C"/>
</linearGradient>
</defs>
</svg>
