<svg width="199" height="271" viewBox="0 0 199 271" fill="none" xmlns="http://www.w3.org/2000/svg">
<path d="M48.87 259.105C48.4986 259.478 48.4986 259.478 48.87 259.105C48.4986 259.478 48.4986 259.478 48.4986 259.478H48.1273L47.7559 259.105C47.3845 259.105 47.3845 258.732 47.0132 258.732C46.6418 258.732 46.2705 258.732 45.8991 258.732C45.5278 258.732 45.1564 258.732 45.1564 258.732C44.785 258.732 44.785 259.105 44.4137 259.105L44.0423 259.478C44.0423 259.852 44.0423 259.852 44.0423 260.225C44.0423 260.599 44.0423 260.972 44.4137 260.972C44.4137 261.346 44.785 261.346 45.1564 261.346C45.5278 261.346 45.8991 261.719 46.2705 261.719C46.6418 261.719 47.0132 262.093 47.3845 262.093C47.7559 262.093 48.1273 262.466 48.4986 262.466C48.87 262.466 49.2413 262.839 49.6127 263.213C49.984 263.586 49.984 263.96 50.3554 264.333C50.3554 264.707 50.7268 265.08 50.7268 265.827C50.7268 266.574 50.7268 266.947 50.3554 267.694C49.984 268.068 49.984 268.815 49.6127 269.188C49.2413 269.561 48.87 269.935 48.1273 269.935C47.3845 270.308 47.0132 270.308 46.2705 270.308C45.8991 270.308 45.5278 270.308 45.1564 270.308C44.785 270.308 44.4137 269.935 44.0423 269.935C43.671 269.935 43.2996 269.561 42.9283 269.561C42.5569 269.188 42.1855 269.188 42.1855 268.815L42.9283 267.694C42.9283 267.694 42.9283 267.694 43.2996 267.321H43.671C43.671 267.321 44.0423 267.321 44.0423 267.694C44.0423 267.694 44.4137 268.068 44.785 268.068C45.1564 268.068 45.1564 268.441 45.5278 268.441C45.8991 268.441 46.2705 268.815 46.6418 268.815C47.3845 268.815 47.7559 268.815 48.1273 268.441C48.4986 268.068 48.87 267.694 48.87 266.947C48.87 266.574 48.87 266.2 48.4986 266.2C48.4986 265.827 48.1273 265.827 47.7559 265.454C47.3845 265.454 47.0132 265.08 46.6418 265.08C46.2705 265.08 45.8991 264.707 45.5278 264.707C45.1564 264.707 44.785 264.333 44.4137 264.333C44.0423 264.333 43.671 263.96 43.2996 263.586C42.9283 263.213 42.9283 262.839 42.5569 262.466C42.5569 262.093 42.1855 261.719 42.1855 260.972C42.1855 260.599 42.1855 259.852 42.5569 259.478C42.9283 259.105 42.9283 258.732 43.2996 258.358C43.671 257.985 44.0423 257.611 44.785 257.611C45.1564 257.238 45.8991 257.238 46.6418 257.238C47.3845 257.238 48.1273 257.238 48.87 257.611C49.6127 257.985 49.984 258.358 50.7268 258.732L48.87 259.105ZM71.1514 256.864V258.732H67.0664V269.935H64.467V258.732H60.382V256.864H71.1514ZM88.2338 268.068C88.6051 268.068 88.9765 268.068 89.3479 267.694C89.7192 267.694 90.0906 267.321 90.4619 266.947C90.8333 266.574 90.8333 266.2 91.2046 265.827C91.2046 265.454 91.576 265.08 91.576 264.333V256.491H94.1755V264.333C94.1755 265.08 94.1755 265.827 93.8041 266.574C93.4328 267.321 93.0614 267.694 92.6901 268.441C92.3187 268.815 91.576 269.188 90.8333 269.561C90.0906 269.935 89.3479 269.935 88.6051 269.935C87.8624 269.935 87.1197 269.935 86.377 269.561C85.6343 269.188 85.2629 268.815 84.5202 268.441C84.1489 268.068 83.7775 267.321 83.4062 266.574C82.6634 266.2 82.6634 265.454 82.6634 264.707V256.864H85.2629V264.707C85.2629 265.08 85.2629 265.827 85.6343 266.2C85.6343 266.574 86.0056 266.947 86.377 267.321C86.7484 267.694 87.1197 267.694 87.4911 268.068C87.1197 268.068 87.4911 268.068 88.2338 268.068ZM117.942 263.586C117.942 264.707 117.942 265.454 117.571 266.2C117.2 266.947 116.828 267.694 116.086 268.441C115.343 269.188 114.971 269.561 113.857 269.935C113.115 270.308 112.001 270.308 111.258 270.308H106.059V256.864H111.258C112.372 256.864 113.115 256.864 113.857 257.238C114.6 257.611 115.343 257.985 116.086 258.732C116.828 259.478 117.2 259.852 117.571 260.972C117.942 261.719 117.942 262.466 117.942 263.586ZM115.714 263.586C115.714 262.839 115.714 262.093 115.343 261.719C114.971 260.972 114.971 260.599 114.6 260.225C114.229 259.852 113.857 259.478 113.115 259.478C112.743 259.105 112.001 259.105 111.258 259.105H108.658V268.441H111.258C112.001 268.441 112.372 268.441 113.115 268.068C113.486 267.694 114.229 267.694 114.6 266.947C114.971 266.574 115.343 266.2 115.343 265.454C115.343 264.707 115.714 264.333 115.714 263.586ZM132.797 270.308H130.197V256.864H132.797V270.308ZM158.792 263.586C158.792 264.707 158.792 265.454 158.42 266.2C158.049 266.947 157.678 267.694 156.935 268.441C156.192 269.188 155.821 269.561 154.707 269.935C153.964 270.308 152.85 270.308 152.107 270.308C150.993 270.308 150.25 270.308 149.508 269.935C148.765 269.561 148.022 269.188 147.28 268.441C146.537 267.694 146.165 266.947 145.794 266.2C145.423 265.454 145.423 264.333 145.423 263.586C145.423 262.466 145.423 261.719 145.794 260.972C146.165 260.225 146.537 259.478 147.28 258.732C148.022 257.985 148.765 257.611 149.508 257.238C150.25 256.864 151.364 256.864 152.107 256.864C153.221 256.864 153.964 256.864 154.707 257.238C155.449 257.611 156.192 257.985 156.935 258.732C157.678 259.478 158.049 260.225 158.42 260.972C158.792 261.719 158.792 262.466 158.792 263.586ZM156.192 263.586C156.192 262.839 156.192 262.093 155.821 261.719C155.449 260.972 155.449 260.599 155.078 260.225C154.707 259.852 154.335 259.478 153.593 259.105C153.221 258.732 152.479 258.732 151.736 258.732C150.993 258.732 150.622 258.732 149.879 259.105C149.508 259.478 148.765 259.478 148.394 260.225C148.022 260.599 147.651 260.972 147.651 261.719C147.28 262.466 147.28 262.839 147.28 263.586C147.28 264.333 147.28 265.08 147.651 265.454C148.022 266.2 148.022 266.574 148.394 266.947C148.765 267.321 149.136 267.694 149.879 268.068C150.25 268.441 150.993 268.441 151.736 268.441C152.479 268.441 152.85 268.441 153.593 268.068C153.964 267.694 154.707 267.694 155.078 266.947C155.449 266.574 155.821 266.2 155.821 265.454C156.192 264.707 156.192 264.333 156.192 263.586Z" fill="black"/>
<path d="M25.103 228.11L21.3895 216.907C20.6468 215.039 20.2754 213.546 19.904 211.678C19.5327 213.546 18.79 215.039 18.4186 216.907L14.705 228.11H25.103ZM10.6201 239.687C10.2488 240.807 9.13469 241.554 7.64927 241.554H0.964844L15.4478 204.209H24.3603L38.8432 241.554H31.7875C30.6734 241.554 29.188 240.807 28.8166 239.687L26.9598 234.085H12.1055L10.6201 239.687ZM185.158 228.11L181.444 216.907C180.702 215.039 180.33 213.546 179.959 211.678C179.587 213.546 178.845 215.039 178.473 216.907L174.76 228.11H185.158ZM170.304 239.687C169.932 240.807 168.818 241.554 167.333 241.554H160.648L175.131 204.209H184.044L198.527 241.554H191.842C190.728 241.554 189.243 240.807 188.871 239.687L187.015 234.085H172.16L170.304 239.687ZM51.4694 204.209H42.9282V241.554H51.4694V224.749V210.558H57.7824C60.7533 210.558 63.3528 213.172 63.3528 216.16C63.3528 219.147 60.7533 221.761 57.7824 221.761H52.2121L64.4669 240.06C65.5809 241.181 66.3236 241.554 67.8091 241.554H75.2362L64.0955 225.122C67.8091 223.629 71.1513 219.894 71.1513 215.039C71.1513 209.064 66.3236 204.209 58.1538 204.209H51.4694ZM109.03 204.209C110.515 204.209 114.229 204.209 116.085 204.209C117.2 204.209 117.942 204.956 117.942 206.077V222.882V241.554C116.457 241.554 112.743 241.554 110.886 241.554C109.772 241.554 109.03 240.807 109.03 239.687V222.882V204.209ZM103.459 210.558H93.0613C93.0613 221.015 93.0613 231.098 93.0613 241.554C91.5759 241.554 87.8623 241.554 86.0055 241.554C84.8915 241.554 84.1488 240.807 84.1488 239.687C84.1488 229.977 84.1488 220.268 84.1488 210.558H75.2362C74.1221 210.558 73.3794 209.811 73.3794 208.691C73.3794 207.197 73.3794 205.703 73.3794 203.836H103.459V210.558ZM125.741 204.209C127.226 204.209 130.94 204.209 132.796 204.209C133.911 204.209 134.653 204.956 134.653 206.077V222.882V241.554C133.168 241.554 129.454 241.554 127.597 241.554C126.483 241.554 125.741 240.807 125.741 239.687V222.882V204.209ZM146.165 206.077C147.279 204.583 148.393 204.209 149.879 204.209H157.306L143.566 221.761C144.68 222.135 145.423 223.255 146.165 224.002L158.049 241.554H150.25C148.765 241.554 147.651 241.181 146.908 240.06L134.653 221.761L146.165 206.077Z" fill="black"/>
<path fill-rule="evenodd" clip-rule="evenodd" d="M32.5311 149.313L78.5793 44.3749H67.0672C60.7542 51.0969 54.0698 57.819 48.128 64.9144C31.0456 85.0805 17.6768 106.74 18.4195 125.039C18.7909 133.255 21.7617 139.977 26.5894 144.832C28.4461 146.326 30.6743 147.819 32.5311 149.313ZM85.2637 119.437C85.2637 125.786 83.4069 133.255 80.0647 138.857C75.6084 146.326 68.924 151.18 61.4969 153.421C55.5552 155.288 48.8708 155.288 42.9291 153.794C42.5577 153.794 42.5577 153.794 42.1863 153.421L57.7833 117.57C61.8682 133.255 80.8074 134.749 80.8074 124.292V121.678H76.3512C71.5235 121.678 67.4386 117.57 67.4386 112.715C67.4386 107.861 71.5235 103.753 76.3512 103.753C81.1788 103.753 85.2637 107.861 85.2637 112.715V119.437ZM166.962 149.313L120.914 44.0015H132.426C138.739 50.7235 145.423 57.4455 151.365 64.541C168.448 84.707 181.816 106.367 181.074 124.666C180.702 132.882 177.732 139.604 172.904 144.458C171.047 146.326 168.819 147.819 166.962 149.313ZM114.23 119.437C114.23 125.786 116.086 133.255 119.429 138.857C123.885 146.326 130.569 151.18 137.996 153.421C143.938 155.288 150.622 155.288 156.564 153.794C156.936 153.794 156.936 153.794 157.307 153.421L141.71 117.57C137.625 133.255 118.686 134.749 118.686 124.292V121.678H123.142C127.97 121.678 132.055 117.57 132.055 112.715C132.055 107.861 127.97 103.753 123.142 103.753C118.314 103.753 114.23 107.861 114.23 112.715V119.437ZM99.7466 33.545H77.8366C84.8924 26.823 92.3195 20.101 99.7466 13.7524C107.174 20.101 114.601 26.823 121.657 33.545H99.7466ZM104.946 81.7195V87.3212C104.946 90.3087 102.717 92.5494 99.7466 92.5494C96.7758 92.5494 94.5476 90.3087 94.5476 87.3212V81.7195H73.3803L67.0672 95.9104C69.6667 94.4166 73.0089 93.6697 76.3512 93.6697C86.7491 93.6697 95.2903 102.259 95.2903 112.715C95.2903 126.16 95.2903 139.604 95.2903 153.421C95.2903 163.131 91.2054 172.467 84.521 179.189H99.7466H114.972C107.916 172.093 104.203 163.131 104.203 153.421C104.203 139.977 104.203 126.533 104.203 112.715C104.203 102.259 112.744 93.6697 123.142 93.6697C126.484 93.6697 129.455 94.4166 132.426 95.9104L126.113 81.7195H104.946ZM99.7466 60.4331C102.717 60.4331 104.946 62.6738 104.946 65.6613V71.263H121.285C119.057 66.4082 116.829 60.8065 109.402 44.0015H99.7466H90.0913L78.2079 71.263H94.5476V65.6613C94.5476 62.6738 96.7758 60.4331 99.7466 60.4331ZM95.6617 3.66936C80.4361 16.74 58.526 36.5326 40.3296 57.819C21.7617 79.8522 7.27881 103.753 8.02152 124.666C8.39288 135.869 12.8492 144.832 19.1622 151.554C21.7617 154.168 24.7326 156.409 28.0748 158.276L19.1622 178.815H7.65017C4.67931 178.815 2.45117 181.056 2.45117 184.044V189.272H47.7567V184.044C47.7567 181.056 45.5285 178.815 42.5577 178.815H30.6743L38.1014 162.384C38.8441 162.757 39.5868 163.131 40.7009 163.131C48.4994 164.998 57.0406 164.998 64.8391 162.757C72.6376 160.516 80.8074 155.288 85.6351 148.94V153.421C85.6351 160.516 82.6642 166.865 78.2079 171.72C73.7517 176.201 67.0672 179.189 60.3828 179.189H55.5552V184.417C55.5552 187.405 57.7833 189.645 60.7542 189.645H100.489H140.224C143.195 189.645 145.423 187.405 145.423 184.417V179.189H140.596C133.54 179.189 127.227 176.201 122.771 171.72C117.943 166.865 115.344 160.516 115.344 153.421V149.313C120.171 156.035 128.341 160.89 136.14 163.131C143.938 165.371 152.479 165.371 160.278 163.504C161.02 163.131 161.763 163.131 162.877 162.757L170.304 179.189H156.936C153.965 179.189 151.737 181.429 151.737 184.417V189.645H197.042V184.417C197.042 181.429 194.814 179.189 191.843 179.189H179.96L171.047 158.649C174.389 156.782 177.36 154.541 179.96 151.927C186.644 145.205 190.729 136.243 191.1 125.039C191.843 104.126 177.36 80.2257 158.792 58.1924C140.967 36.906 119.057 17.1134 103.46 4.04281L99.7466 0.30835L95.6617 3.66936Z" fill="black"/>
</svg>
