<svg width="199" height="271" viewBox="0 0 199 271" fill="none" xmlns="http://www.w3.org/2000/svg">
<path d="M48.87 259.105C48.4986 259.479 48.4986 259.479 48.87 259.105C48.4986 259.479 48.4986 259.479 48.4986 259.479H48.1273L47.7559 259.105C47.3845 259.105 47.3845 258.732 47.0132 258.732C46.6418 258.732 46.2705 258.732 45.8991 258.732C45.5278 258.732 45.1564 258.732 45.1564 258.732C44.785 258.732 44.785 259.105 44.4137 259.105L44.0423 259.479C44.0423 259.852 44.0423 259.852 44.0423 260.226C44.0423 260.599 44.0423 260.973 44.4137 260.973C44.4137 261.346 44.785 261.346 45.1564 261.346C45.5278 261.346 45.8991 261.719 46.2705 261.719C46.6418 261.719 47.0132 262.093 47.3845 262.093C47.7559 262.093 48.1273 262.466 48.4986 262.466C48.87 262.466 49.2413 262.84 49.6127 263.213C49.984 263.587 49.984 263.96 50.3554 264.334C50.3554 264.707 50.7268 265.08 50.7268 265.827C50.7268 266.574 50.7268 266.948 50.3554 267.695C49.984 268.068 49.984 268.815 49.6127 269.188C49.2413 269.562 48.87 269.935 48.1273 269.935C47.3845 270.309 47.0132 270.309 46.2705 270.309C45.8991 270.309 45.5278 270.309 45.1564 270.309C44.785 270.309 44.4137 269.935 44.0423 269.935C43.671 269.935 43.2996 269.562 42.9283 269.562C42.5569 269.188 42.1855 269.188 42.1855 268.815L42.9283 267.695C42.9283 267.695 42.9283 267.695 43.2996 267.321H43.671C43.671 267.321 44.0423 267.321 44.0423 267.695C44.0423 267.695 44.4137 268.068 44.785 268.068C45.1564 268.068 45.1564 268.441 45.5278 268.441C45.8991 268.441 46.2705 268.815 46.6418 268.815C47.3845 268.815 47.7559 268.815 48.1273 268.441C48.4986 268.068 48.87 267.695 48.87 266.948C48.87 266.574 48.87 266.201 48.4986 266.201C48.4986 265.827 48.1273 265.827 47.7559 265.454C47.3845 265.454 47.0132 265.08 46.6418 265.08C46.2705 265.08 45.8991 264.707 45.5278 264.707C45.1564 264.707 44.785 264.334 44.4137 264.334C44.0423 264.334 43.671 263.96 43.2996 263.587C42.9283 263.213 42.9283 262.84 42.5569 262.466C42.5569 262.093 42.1855 261.719 42.1855 260.973C42.1855 260.599 42.1855 259.852 42.5569 259.479C42.9283 259.105 42.9283 258.732 43.2996 258.358C43.671 257.985 44.0423 257.612 44.785 257.612C45.1564 257.238 45.8991 257.238 46.6418 257.238C47.3845 257.238 48.1273 257.238 48.87 257.612C49.6127 257.985 49.984 258.358 50.7268 258.732L48.87 259.105ZM71.1514 256.865V258.732H67.0664V269.935H64.467V258.732H60.382V256.865H71.1514ZM88.2338 268.068C88.6051 268.068 88.9765 268.068 89.3479 267.695C89.7192 267.695 90.0906 267.321 90.4619 266.948C90.8333 266.574 90.8333 266.201 91.2046 265.827C91.2046 265.454 91.576 265.08 91.576 264.334V256.491H94.1755V264.334C94.1755 265.08 94.1755 265.827 93.8041 266.574C93.4328 267.321 93.0614 267.695 92.6901 268.441C92.3187 268.815 91.576 269.188 90.8333 269.562C90.0906 269.935 89.3479 269.935 88.6051 269.935C87.8624 269.935 87.1197 269.935 86.377 269.562C85.6343 269.188 85.2629 268.815 84.5202 268.441C84.1489 268.068 83.7775 267.321 83.4062 266.574C82.6634 266.201 82.6634 265.454 82.6634 264.707V256.865H85.2629V264.707C85.2629 265.08 85.2629 265.827 85.6343 266.201C85.6343 266.574 86.0056 266.948 86.377 267.321C86.7484 267.695 87.1197 267.695 87.4911 268.068C87.1197 268.068 87.4911 268.068 88.2338 268.068ZM117.942 263.587C117.942 264.707 117.942 265.454 117.571 266.201C117.2 266.948 116.828 267.695 116.086 268.441C115.343 269.188 114.971 269.562 113.857 269.935C113.115 270.309 112.001 270.309 111.258 270.309H106.059V256.865H111.258C112.372 256.865 113.115 256.865 113.857 257.238C114.6 257.612 115.343 257.985 116.086 258.732C116.828 259.479 117.2 259.852 117.571 260.973C117.942 261.719 117.942 262.466 117.942 263.587ZM115.714 263.587C115.714 262.84 115.714 262.093 115.343 261.719C114.971 260.973 114.971 260.599 114.6 260.226C114.229 259.852 113.857 259.479 113.115 259.479C112.743 259.105 112.001 259.105 111.258 259.105H108.658V268.441H111.258C112.001 268.441 112.372 268.441 113.115 268.068C113.486 267.695 114.229 267.695 114.6 266.948C114.971 266.574 115.343 266.201 115.343 265.454C115.343 264.707 115.714 264.334 115.714 263.587ZM132.797 270.309H130.197V256.865H132.797V270.309ZM158.792 263.587C158.792 264.707 158.792 265.454 158.42 266.201C158.049 266.948 157.678 267.695 156.935 268.441C156.192 269.188 155.821 269.562 154.707 269.935C153.964 270.309 152.85 270.309 152.107 270.309C150.993 270.309 150.25 270.309 149.508 269.935C148.765 269.562 148.022 269.188 147.28 268.441C146.537 267.695 146.165 266.948 145.794 266.201C145.423 265.454 145.423 264.334 145.423 263.587C145.423 262.466 145.423 261.719 145.794 260.973C146.165 260.226 146.537 259.479 147.28 258.732C148.022 257.985 148.765 257.612 149.508 257.238C150.25 256.865 151.364 256.865 152.107 256.865C153.221 256.865 153.964 256.865 154.707 257.238C155.449 257.612 156.192 257.985 156.935 258.732C157.678 259.479 158.049 260.226 158.42 260.973C158.792 261.719 158.792 262.466 158.792 263.587ZM156.192 263.587C156.192 262.84 156.192 262.093 155.821 261.719C155.449 260.973 155.449 260.599 155.078 260.226C154.707 259.852 154.335 259.479 153.593 259.105C153.221 258.732 152.479 258.732 151.736 258.732C150.993 258.732 150.622 258.732 149.879 259.105C149.508 259.479 148.765 259.479 148.394 260.226C148.022 260.599 147.651 260.973 147.651 261.719C147.28 262.466 147.28 262.84 147.28 263.587C147.28 264.334 147.28 265.08 147.651 265.454C148.022 266.201 148.022 266.574 148.394 266.948C148.765 267.321 149.136 267.695 149.879 268.068C150.25 268.441 150.993 268.441 151.736 268.441C152.479 268.441 152.85 268.441 153.593 268.068C153.964 267.695 154.707 267.695 155.078 266.948C155.449 266.574 155.821 266.201 155.821 265.454C156.192 264.707 156.192 264.334 156.192 263.587Z" fill="white"/>
<path d="M25.103 228.11L21.3895 216.907C20.6468 215.04 20.2754 213.546 19.904 211.679C19.5327 213.546 18.79 215.04 18.4186 216.907L14.705 228.11H25.103ZM10.6201 239.687C10.2488 240.808 9.13469 241.554 7.64927 241.554H0.964844L15.4478 204.21H24.3603L38.8432 241.554H31.7875C30.6734 241.554 29.188 240.808 28.8166 239.687L26.9598 234.086H12.1055L10.6201 239.687ZM185.158 228.11L181.444 216.907C180.702 215.04 180.33 213.546 179.959 211.679C179.587 213.546 178.845 215.04 178.473 216.907L174.76 228.11H185.158ZM170.304 239.687C169.932 240.808 168.818 241.554 167.333 241.554H160.648L175.131 204.21H184.044L198.527 241.554H191.842C190.728 241.554 189.243 240.808 188.871 239.687L187.015 234.086H172.16L170.304 239.687ZM51.4694 204.21H42.9282V241.554H51.4694V224.749V210.558H57.7824C60.7533 210.558 63.3528 213.173 63.3528 216.16C63.3528 219.148 60.7533 221.762 57.7824 221.762H52.2121L64.4669 240.061C65.5809 241.181 66.3236 241.554 67.8091 241.554H75.2362L64.0955 225.123C67.8091 223.629 71.1513 219.895 71.1513 215.04C71.1513 209.065 66.3236 204.21 58.1538 204.21H51.4694ZM109.03 204.21C110.515 204.21 114.229 204.21 116.085 204.21C117.2 204.21 117.942 204.957 117.942 206.077V222.882V241.554C116.457 241.554 112.743 241.554 110.886 241.554C109.772 241.554 109.03 240.808 109.03 239.687V222.882V204.21ZM103.459 210.558H93.0613C93.0613 221.015 93.0613 231.098 93.0613 241.554C91.5759 241.554 87.8623 241.554 86.0055 241.554C84.8915 241.554 84.1488 240.808 84.1488 239.687C84.1488 229.978 84.1488 220.268 84.1488 210.558H75.2362C74.1221 210.558 73.3794 209.812 73.3794 208.691C73.3794 207.197 73.3794 205.704 73.3794 203.836H103.459V210.558ZM125.741 204.21C127.226 204.21 130.94 204.21 132.796 204.21C133.911 204.21 134.653 204.957 134.653 206.077V222.882V241.554C133.168 241.554 129.454 241.554 127.597 241.554C126.483 241.554 125.741 240.808 125.741 239.687V222.882V204.21ZM146.165 206.077C147.279 204.583 148.393 204.21 149.879 204.21H157.306L143.566 221.762C144.68 222.135 145.423 223.256 146.165 224.002L158.049 241.554H150.25C148.765 241.554 147.651 241.181 146.908 240.061L134.653 221.762L146.165 206.077Z" fill="white"/>
<path fill-rule="evenodd" clip-rule="evenodd" d="M32.5311 149.313L78.5793 44.3752H67.0672C60.7542 51.0972 54.0698 57.8192 48.128 64.9147C31.0456 85.0807 17.6768 106.741 18.4195 125.039C18.7909 133.255 21.7617 139.977 26.5894 144.832C28.4461 146.326 30.6743 147.82 32.5311 149.313ZM85.2637 119.438C85.2637 125.786 83.4069 133.255 80.0647 138.857C75.6084 146.326 68.924 151.181 61.4969 153.421C55.5552 155.288 48.8708 155.288 42.9291 153.795C42.5577 153.795 42.5577 153.795 42.1863 153.421L57.7833 117.57C61.8682 133.255 80.8074 134.749 80.8074 124.293V121.678H76.3512C71.5235 121.678 67.4386 117.571 67.4386 112.716C67.4386 107.861 71.5235 103.753 76.3512 103.753C81.1788 103.753 85.2637 107.861 85.2637 112.716V119.438ZM166.962 149.313L120.914 44.0017H132.426C138.739 50.7237 145.423 57.4458 151.365 64.5412C168.448 84.7073 181.816 106.367 181.074 124.666C180.702 132.882 177.732 139.604 172.904 144.459C171.047 146.326 168.819 147.82 166.962 149.313ZM114.23 119.438C114.23 125.786 116.086 133.255 119.429 138.857C123.885 146.326 130.569 151.181 137.996 153.421C143.938 155.288 150.622 155.288 156.564 153.795C156.936 153.795 156.936 153.795 157.307 153.421L141.71 117.57C137.625 133.255 118.686 134.749 118.686 124.293V121.678H123.142C127.97 121.678 132.055 117.571 132.055 112.716C132.055 107.861 127.97 103.753 123.142 103.753C118.314 103.753 114.23 107.861 114.23 112.716V119.438ZM99.7466 33.5452H77.8366C84.8924 26.8232 92.3195 20.1012 99.7466 13.7526C107.174 20.1012 114.601 26.8232 121.657 33.5452H99.7466ZM104.946 81.7197V87.3214C104.946 90.309 102.717 92.5497 99.7466 92.5497C96.7758 92.5497 94.5476 90.309 94.5476 87.3214V81.7197H73.3803L67.0672 95.9107C69.6667 94.4169 73.0089 93.67 76.3512 93.67C86.7491 93.67 95.2903 102.259 95.2903 112.716C95.2903 126.16 95.2903 139.604 95.2903 153.421C95.2903 163.131 91.2054 172.467 84.521 179.189H99.7466H114.972C107.916 172.094 104.203 163.131 104.203 153.421C104.203 139.977 104.203 126.533 104.203 112.716C104.203 102.259 112.744 93.67 123.142 93.67C126.484 93.67 129.455 94.4169 132.426 95.9107L126.113 81.7197H104.946ZM99.7466 60.4333C102.717 60.4333 104.946 62.674 104.946 65.6616V71.2633H121.285C119.057 66.4085 116.829 60.8068 109.402 44.0017H99.7466H90.0913L78.2079 71.2633H94.5476V65.6616C94.5476 62.674 96.7758 60.4333 99.7466 60.4333ZM95.6617 3.6696C80.4361 16.7402 58.526 36.5328 40.3296 57.8192C21.7617 79.8525 7.27881 103.753 8.02152 124.666C8.39288 135.869 12.8492 144.832 19.1622 151.554C21.7617 154.168 24.7326 156.409 28.0748 158.276L19.1622 178.816H7.65017C4.67931 178.816 2.45117 181.056 2.45117 184.044V189.272H47.7567V184.044C47.7567 181.056 45.5285 178.816 42.5577 178.816H30.6743L38.1014 162.384C38.8441 162.757 39.5868 163.131 40.7009 163.131C48.4994 164.998 57.0406 164.998 64.8391 162.757C72.6376 160.517 80.8074 155.288 85.6351 148.94V153.421C85.6351 160.517 82.6642 166.865 78.2079 171.72C73.7517 176.201 67.0672 179.189 60.3828 179.189H55.5552V184.417C55.5552 187.405 57.7833 189.645 60.7542 189.645H100.489H140.224C143.195 189.645 145.423 187.405 145.423 184.417V179.189H140.596C133.54 179.189 127.227 176.201 122.771 171.72C117.943 166.865 115.344 160.517 115.344 153.421V149.313C120.171 156.035 128.341 160.89 136.14 163.131C143.938 165.372 152.479 165.372 160.278 163.504C161.02 163.131 161.763 163.131 162.877 162.757L170.304 179.189H156.936C153.965 179.189 151.737 181.43 151.737 184.417V189.645H197.042V184.417C197.042 181.43 194.814 179.189 191.843 179.189H179.96L171.047 158.65C174.389 156.782 177.36 154.542 179.96 151.927C186.644 145.205 190.729 136.243 191.1 125.039C191.843 104.126 177.36 80.2259 158.792 58.1927C140.967 36.9063 119.057 17.1136 103.46 4.04305L99.7466 0.308594L95.6617 3.6696Z" fill="white"/>
</svg>
